<svg t="1688447886256" class="icon" viewBox="0 0 1024 1024" version="1.1" xmlns="http://www.w3.org/2000/svg" p-id="6464" width="200" height="200"><path d="M870.4 793.6q0 6.144-6.144 10.24t-14.336 4.096-14.336-4.096-6.144-10.24l0-468.992q0-6.144 6.144-12.8t14.336-6.656 14.336 6.144 6.144 12.288l0 470.016zM961.536 793.6q0 6.144-6.144 10.24t-14.336 4.096-14.336-4.096-6.144-10.24l0-470.016q0-6.144 6.144-12.288t14.336-6.144 14.336 6.144 6.144 12.288l0 470.016zM541.696 771.072q0 19.456-12.288 31.232t-31.744 11.776l-188.416 0q-20.48 0-34.304-12.8t-13.824-32.256l0-45.056 280.576 0 0 47.104zM52.224 335.872q-11.264 0-15.36 4.608t-4.608 12.288 0 18.432 0.512 23.04q-1.024 30.72 9.216 69.632t32.256 76.288 57.856 70.144 84.992 52.224q56.32 21.504 114.688 27.136t110.08 2.56 91.648-12.288 58.368-17.408q29.696-13.312 60.416-29.184t57.344-45.056 45.568-76.288 24.064-121.856q2.048-26.624-2.048-40.448t-24.576-13.824l-700.416 0z" p-id="6465" fill="#ffffff"></path></svg>